<svg width="176" height="67" viewBox="0 0 176 67" fill="none" xmlns="http://www.w3.org/2000/svg">
<path d="M0 0H44.1503L22.0751 21.9116H0V0Z" fill="#67678B"/>
<path d="M0 21.9116H21.9116V66.0619H0V21.9116Z" fill="#67678B"/>
<path d="M21.584 65.7348L44.2695 43.3326H49.8292L49.8729 65.7348H21.584Z" fill="#67678B"/>
<path d="M66.0614 22.5654L52.3261 33.1943L65.8622 45.9248L65.9413 65.7344H43.9413V21.2578L44.0409 21.3574V0H66.0614V22.5654Z" fill="#67678B"/>
<path d="M81.6953 13V53H72.0273V13H81.6953ZM87.7646 53V13H97.4326V45.1484H114.073V53H87.7646ZM133.863 53H119.078V13H133.844C137.919 13 141.428 13.8008 144.371 15.4023C147.327 16.9909 149.605 19.2826 151.207 22.2773C152.809 25.2591 153.609 28.8268 153.609 32.9805C153.609 37.1471 152.809 40.7279 151.207 43.7227C149.618 46.7174 147.346 49.0156 144.391 50.6172C141.435 52.2057 137.926 53 133.863 53ZM128.746 44.7578H133.492C135.732 44.7578 137.626 44.3802 139.176 43.625C140.738 42.8568 141.917 41.6133 142.711 39.8945C143.518 38.1628 143.922 35.8581 143.922 32.9805C143.922 30.1029 143.518 27.8112 142.711 26.1055C141.904 24.3867 140.712 23.1497 139.137 22.3945C137.574 21.6263 135.647 21.2422 133.355 21.2422H128.746V44.7578Z" fill="#67678B"/>
</svg>
